<?xml version="1.0" encoding="utf-8"?>
<!-- Generator: Adobe Illustrator 24.1.3, SVG Export Plug-In . SVG Version: 6.00 Build 0)  -->
<svg version="1.1" id="Capa_1" xmlns="http://www.w3.org/2000/svg" xmlns:xlink="http://www.w3.org/1999/xlink" x="0px" y="0px"
	 viewBox="0 0 57.1 17.7" style="enable-background:new 0 0 57.1 17.7;" xml:space="preserve">
<style type="text/css">
	.st0{fill:#111111;}
	.st1{fill:#FFFFFF;}
	.st2{font-family:'MyriadPro-Regular';}
	.st3{font-size:12px;}
</style>
<path class="st0" d="M14.3,3.3C12.9,1.9,10.9,1,8.7,1c-4.4,0-8,3.6-8,8s3.6,8,8,8s8-3.6,8-8C16.6,6.7,15.7,4.7,14.3,3.3z M13.6,13.8
	c-1.3,1.3-3,2-4.9,2s-3.6-0.8-4.9-2c-1.3-1.3-2-3-2-4.9s0.8-3.6,2-4.9c1.3-1.3,3-2,4.9-2s3.6,0.8,4.9,2c1.3,1.3,2,3,2,4.9
	C15.6,10.9,14.8,12.6,13.6,13.8z"/>
<path class="st1" d="M15.6,8.9c0,2-0.8,3.7-2,4.9c-1.3,1.3-3,2-4.9,2s-3.6-0.8-4.9-2c-1.3-1.3-2-3-2-4.9s0.8-3.6,2-4.9
	c1.3-1.3,3-2,4.9-2s3.6,0.8,4.9,2C14.9,5.3,15.6,7,15.6,8.9z"/>
<path class="st0" d="M8,12.6c0-0.8-0.7-1.4-1.5-1.4S5,11.8,5,12.6S5.7,14,6.5,14C7.4,14,8,13.4,8,12.6z"/>
<path class="st0" d="M8.5,3.7v8.9v0.3c-0.1,1.7-1.6,1.6-2.2,1.6c4.4,2.4,4.3-1.9,4.3-1.9V3.4C9.5,3.3,8.5,3.7,8.5,3.7z"/>
<text transform="matrix(1 0 0 1 18.7 12.28)" class="st0 st2 st3">J SHOP</text>
</svg>
